<svg width="290" height="93" viewBox="0 0 290 93" fill="none" xmlns="http://www.w3.org/2000/svg">
<path d="M88.75 38L25 0L93 4.47059L88.75 38Z" fill="url(#paint0_linear)" style="mix-blend-mode:darken"/>
<path d="M0 81H32.0508L62 25L0 81Z" fill="url(#paint1_linear)"/>
<path fill-rule="evenodd" clip-rule="evenodd" d="M75.1836 68.2372L84.5726 18.5721L11.5924 0L44.7015 51.9538L0 81.5161H63.541L70.5839 92.5677L72.6732 81.5161H95.2628L75.1836 68.2372ZM75.1836 68.2372L47.6314 50.0161L44.7015 51.9538L63.541 81.5161H72.6732L75.1836 68.2372Z" fill="black"/>
<path d="M134.617 52.2969H129.484V71H119.148V19.8125H135.637C140.816 19.8125 144.812 21.1602 147.625 23.8555C150.461 26.5273 151.879 30.3359 151.879 35.2812C151.879 42.0781 149.406 46.8359 144.461 49.5547L153.426 70.5078V71H142.316L134.617 52.2969ZM129.484 43.6836H135.355C137.418 43.6836 138.965 43.0039 139.996 41.6445C141.027 40.2617 141.543 38.4219 141.543 36.125C141.543 30.9922 139.539 28.4258 135.531 28.4258H129.484V43.6836ZM176.559 71C176.277 70.4141 175.996 69.4297 175.715 68.0469C173.934 70.4844 171.52 71.7031 168.473 71.7031C165.285 71.7031 162.637 70.6484 160.527 68.5391C158.441 66.4297 157.398 63.6992 157.398 60.3477C157.398 56.3633 158.664 53.2812 161.195 51.1016C163.75 48.9219 167.418 47.8086 172.199 47.7617H175.223V44.7031C175.223 42.9922 174.93 41.7852 174.344 41.082C173.758 40.3789 172.902 40.0273 171.777 40.0273C169.293 40.0273 168.051 41.4805 168.051 44.3867H158.102C158.102 40.8711 159.414 37.9766 162.039 35.7031C164.688 33.4062 168.027 32.2578 172.059 32.2578C176.23 32.2578 179.453 33.3477 181.727 35.5273C184.023 37.6836 185.172 40.7773 185.172 44.8086V62.7031C185.219 65.9844 185.688 68.5508 186.578 70.4023V71H176.559ZM170.688 63.8984C171.789 63.8984 172.727 63.6758 173.5 63.2305C174.273 62.7852 174.848 62.2578 175.223 61.6484V53.7383H172.832C171.145 53.7383 169.809 54.2773 168.824 55.3555C167.863 56.4336 167.383 57.875 167.383 59.6797C167.383 62.4922 168.484 63.8984 170.688 63.8984ZM204.297 56.9375L209.113 32.9609H219.484L209.043 71H199.551L189.074 32.9609H199.48L204.297 56.9375ZM239.031 71.7031C233.922 71.7031 229.938 70.1797 227.078 67.1328C224.219 64.0859 222.789 59.7266 222.789 54.0547V51.0312C222.789 45.0312 224.102 40.4023 226.727 37.1445C229.352 33.8867 233.113 32.2578 238.012 32.2578C242.793 32.2578 246.391 33.793 248.805 36.8633C251.219 39.9102 252.449 44.4336 252.496 50.4336V55.3203H232.703C232.844 58.1328 233.465 60.1953 234.566 61.5078C235.668 62.7969 237.367 63.4414 239.664 63.4414C242.992 63.4414 245.77 62.3047 247.996 60.0312L251.898 66.043C250.68 67.7305 248.91 69.1016 246.59 70.1562C244.27 71.1875 241.75 71.7031 239.031 71.7031ZM232.773 48.3594H242.723V47.4453C242.676 45.1719 242.301 43.4492 241.598 42.2773C240.895 41.1055 239.676 40.5195 237.941 40.5195C236.207 40.5195 234.941 41.1406 234.145 42.3828C233.371 43.625 232.914 45.6172 232.773 48.3594ZM267.227 32.9609L267.508 36.7227C269.758 33.7461 272.699 32.2578 276.332 32.2578C282.871 32.2578 286.234 36.8398 286.422 46.0039V71H276.438V46.7422C276.438 44.5859 276.109 43.0273 275.453 42.0664C274.82 41.082 273.695 40.5898 272.078 40.5898C270.273 40.5898 268.867 41.5156 267.859 43.3672V71H257.875V32.9609H267.227Z" fill="black"/>
<defs>
<linearGradient id="paint0_linear" x1="74.1786" y1="73.2059" x2="-0.0768775" y2="-30.012" gradientUnits="userSpaceOnUse">
<stop/>
<stop offset="0.6875" stop-opacity="0"/>
<stop offset="1" stop-color="#F0E5E5" stop-opacity="0.9375"/>
</linearGradient>
<linearGradient id="paint1_linear" x1="8.40678" y1="97.4706" x2="93.4428" y2="68.0183" gradientUnits="userSpaceOnUse">
<stop/>
<stop offset="0.578125" stop-color="#C4C4C4" stop-opacity="0"/>
</linearGradient>
</defs>
</svg>
